<?xml version="1.0" encoding="UTF-8" standalone="no"?>
<svg width="300px" height="297px" viewBox="0 0 300 297" version="1.1" xmlns="http://www.w3.org/2000/svg" xmlns:xlink="http://www.w3.org/1999/xlink" xmlns:sketch="http://www.bohemiancoding.com/sketch/ns">
    <!-- Generator: Sketch 3.2.1 (9971) - http://www.bohemiancoding.com/sketch -->
    <title>Untitled</title>
    <desc>Created with Sketch.</desc>
    <defs>
        <radialGradient cx="47.1028358%" cy="29.3551137%" fx="47.1028358%" fy="29.3551137%" r="37.0411353%" id="radialGradient-1">
            <stop stop-color="#17F607" stop-opacity="0.858186141" offset="0%"></stop>
            <stop stop-color="#043E0C" stop-opacity="0.5" offset="100%"></stop>
        </radialGradient>
        <filter x="-50%" y="-50%" width="200%" height="200%" filterUnits="objectBoundingBox" id="filter-2">
            <feOffset dx="0" dy="1" in="SourceAlpha" result="shadowOffsetOuter1"></feOffset>
            <feGaussianBlur stdDeviation="1.5" in="shadowOffsetOuter1" result="shadowBlurOuter1"></feGaussianBlur>
            <feColorMatrix values="0 0 0 0 0   0 0 0 0 0   0 0 0 0 0  0 0 0 0.35 0" in="shadowBlurOuter1" type="matrix" result="shadowMatrixOuter1"></feColorMatrix>
            <feMerge>
                <feMergeNode in="shadowMatrixOuter1"></feMergeNode>
                <feMergeNode in="SourceGraphic"></feMergeNode>
            </feMerge>
        </filter>
        <path d="M175.262177,19.6755215 C164.51612,15.3691671 152.784734,13 140.5,13 C118.590216,13 98.4405566,20.5359911 82.5016682,33.1573274 L82.5016682,33.1573274 C78.4833483,24.6066726 70.5041117,10.2305333 65.53125,18.5495376 C58.6679686,30.0309885 63.0585938,52.5703125 63.0585938,52.5703125 L64.9761239,51.3674652 C56.024718,63.6087619 49.9774495,78.1079191 47.8483579,93.8508971 L47.8483579,93.8508971 L47.8359375,93.6445312 L10.6679688,137.070312 L48.3203125,164.238281 C48.3203125,164.238281 24.8671875,172.925781 32.46875,181.652344 C40.0703125,190.378906 68.4804688,178.125 68.4804688,178.125 L66.7778009,164.015814 C77.2636393,177.437206 91.3346303,187.921651 107.550618,194.028991 L107.550618,194.028991 L106.753906,193.808594 L111.226562,275.539062 C111.226562,275.539062 99.28125,278.359375 107.796875,285.570312 C116.3125,292.78125 128.824219,292.265625 128.824219,292.265625 L137.554688,284.570312 L118.835938,270.0625 L117.759281,197.215212 C125.039011,199.034263 132.656726,200 140.5,200 C154.448224,200 167.683094,196.945768 179.572311,191.469604 L177.765625,192.703125 L173.070312,267.609375 C173.070312,267.609375 189.402344,284.546875 197.695312,279.683594 C205.988281,274.820312 206.8125,264.570312 202.253906,264.570312 C197.695312,264.570312 182.535156,261.875 182.535156,261.875 L184.935859,188.786512 L184.935874,188.786504 C196.60513,182.471648 206.779394,173.746972 214.791509,163.279634 L213,178.125 C213,178.125 241.410156,190.378906 249.011719,181.652344 C256.613281,172.925781 233.160156,164.238281 233.160156,164.238281 L270.8125,137.070312 L233.644531,93.6445312 L233.472254,96.5069144 L233.472255,96.5069218 C230.595508,69.4312635 216.161918,45.8068253 195.198558,30.6606805 C195.096783,23.0569596 194.3024,5.76306288 189.253906,2.125 C182.738281,-2.5703125 174.007812,18.7578125 174.007812,18.7578125 L175.262177,19.6755215 L175.262177,19.6755215 Z M233.967066,109.006062 C233.475434,127.690316 227.502582,145.009207 217.597464,159.413781 L255.613281,137.828125 L233.967066,109.006062 L233.967066,109.006062 Z M47.051127,109.621584 C47.6500242,127.878592 53.4829858,144.811436 63.0978733,158.967978 L25.8671875,137.828125 L47.051127,109.621584 L47.051127,109.621584 Z M149,130 C175.509668,130 197,108.509668 197,82 C197,55.490332 175.509668,34 149,34 C122.490332,34 101,55.490332 101,82 C101,108.509668 122.490332,130 149,130 Z" id="path-3"></path>
    </defs>
    <g id="Page-1" stroke="none" stroke-width="1" fill="none" fill-rule="evenodd" sketch:type="MSPage">
        <path d="M136.754883,283.662109 C136.754883,283.662109 138.850586,285.191406 138.850586,288.070312 C138.850586,290.949219 133.789062,286.541016 133.789062,286.541016 C133.789062,286.541016 137.742188,289.896484 137.742188,291.688477 C137.742188,293.480469 131.260742,289.138672 131.260742,289.138672 C131.260742,289.138672 135.234375,292.416992 135.234375,294.014648 C135.234375,295.612305 128.133789,293.72168 128.133789,292.148438 C128.133789,290.575195 136.754883,283.662109 136.754883,283.662109 Z" id="Path-8" stroke="#979797" sketch:type="MSShapeGroup"></path>
        <path d="M207.87115,268.662109 C207.87115,268.662109 211,270.191406 211,273.070312 C211,275.949219 203.443229,271.541016 203.443229,271.541016 C203.443229,271.541016 209.34518,274.896484 209.34518,276.688477 C209.34518,278.480469 199.668489,274.138672 199.668489,274.138672 C199.668489,274.138672 205.601057,277.416992 205.601057,279.014648 C205.601057,280.612305 195,278.72168 195,277.148437 C195,275.575195 207.87115,268.662109 207.87115,268.662109 Z" id="Path-8" stroke="#979797" sketch:type="MSShapeGroup" transform="translate(203.000000, 274.141451) rotate(-24.000000) translate(-203.000000, -274.141451) "></path>
        <g id="Oval-1" filter="url(#filter-2)">
            <use stroke="#979797" stroke-width="1" fill="#29EC49" sketch:type="MSShapeGroup" xlink:href="#path-3"></use>
            <use stroke="none" fill="url(#radialGradient-1)" xlink:href="#path-3"></use>
        </g>
        <path d="M109.822178,148.891551 C107.917275,144.906391 109.962709,141.675781 114.381544,141.675781 L185.777634,141.675781 C190.200605,141.675781 192.221024,144.90585 190.297742,148.87512 L185.48839,158.800661 C183.561805,162.776746 178.421945,166 173.991485,166 L126.008515,166 C121.585534,166 116.45603,162.769932 114.550869,158.78423 L109.822178,148.891551 Z" id="Rectangle-1" fill="#2D1616" sketch:type="MSShapeGroup"></path>
        <path d="M133.009766,166.570312 C133.009766,166.570312 133.441406,158.166016 137.546875,160.533203 C141.652344,162.900391 141.109375,166.158203 141.109375,166.158203 L151.917059,166.291016 C151.917059,166.291016 152.902344,158.927734 157.527344,158.927734 C162.152344,158.927734 163.347656,165.679688 163.347656,165.679688 C163.347656,165.679688 163.173828,156.426758 167.105469,159.664062 C171.037109,162.901367 170.822266,166.291016 170.822266,166.291016 L133.009766,166.570312 Z" id="Path-9" fill="#F7F3F3" sketch:type="MSShapeGroup"></path>
    </g>
</svg>